<svg xmlns="http://www.w3.org/2000/svg" width="512" height="512" shape-rendering="geometricPrecision" image-rendering="optimizeQuality" fill-rule="evenodd" xmlns:v="https://vecta.io/nano"><style><![CDATA[.B{fill:#202020}.C{fill:#222}.D{opacity:.999}.E{fill:#232323}.F{fill:#272727}.G{fill:#212121}.H{fill:#1c1c1c}.I{fill:#e77ef7}.J{fill:#1e1e1e}.K{fill:#353535}.L{fill:#2a2a2a}.M{fill:#252525}.N{fill:#292929}.O{fill:#262626}.P{opacity:.929}.Q{opacity:.847}.R{fill:#2f2f2f}]]></style><path fill="#252122" d="M259.5 57.5c0 .667.333 1 1 1 1.828 5.326 4.995 9.659 9.5 13a19.24 19.24 0 0 0 3 9l12 20a248.1 248.1 0 0 1 14.5-12c.632-2.53 1.632-4.863 3-7 1.871-1.267 3.704-1.267 5.5 0l62.5-52 1 1.5-5 19.5c-2.244 4.293-3.577 8.96-4 14a29.36 29.36 0 0 1-2 9c2.995 3.373 2.328 5.373-2 6a893.07 893.07 0 0 1-7 33c-3.033.368-5.7-.298-8-2 5.085-20.126 9.751-40.126 14-60l-74 61-31.5-51-29 50c-.718.951-1.551 1.117-2.5.5L174 50.5l-5.5 71c-2.532-1.096-4.865-2.429-7-4v-3c-7.019-.223-9.019-3.39-6-9.5 2.124-1.582 4.29-1.749 6.5-.5l4.5-75h3c3.767 7.623 8.6 14.623 14.5 21 .807-3.897 2.474-4.563 5-2 .388 1.576-.112 2.909-1.5 4-.951-.826-1.951-.992-3-.5a866.76 866.76 0 0 0 22 27.5c6.184-3.661 9.351-1.994 9.5 5l-3.5 3.5 8.5 10.5a147.06 147.06 0 0 1 7.5-13 7.71 7.71 0 0 0-3.5-3c-1.65-4.568-.15-7.234 4.5-8a6.89 6.89 0 0 1 4 2c3.252-4.834 6.252-9.834 9-15-3.024-4.523-1.691-7.023 4-7.5a89.42 89.42 0 0 1 5.5-7.5c3.007 3.356 5.507 7.023 7.5 11z"/><path fill="#363636" d="M259.5 35.5c2.673.184 3.34 1.351 2 3.5-4.052.392-4.719-.775-2-3.5z"/><path fill="#282929" d="M240.5 38.5h4c-.386 4.238-2.052 4.904-5 2l1-2z" opacity=".965"/><path fill="#2e2e2e" d="M222.5 40.5c2.987.448 3.987 1.948 3 4.5-4.978.864-5.978-.636-3-4.5z"/><path d="M204.5 43.5c3.779 1.563 3.945 3.563.5 6a7.71 7.71 0 0 1-3.5-3c1.27-.788 2.27-1.788 3-3z" class="L"/><path fill="#3d3d3d" d="M316.5 43.5c3.389 1.21 3.723 2.877 1 5-2.254-1.214-2.587-2.881-1-5z"/><path fill="#3c3c3d" d="M297.5 46.5c5.222.393 6.055 2.393 2.5 6-3.358-1.041-4.191-3.041-2.5-6z"/><path fill="#303030" d="M279.5 49.5c3.529-.611 5.362.723 5.5 4-2.901 2.818-5.401 2.484-7.5-1l2-3z"/><path fill="#fbfbfb" d="M343.5 110.5c-4.209 2.009-8.543 4.176-13 6.5a36.08 36.08 0 0 0-3.5 4.5l-24 56-17-55c-2.863-5.535-7.363-8.701-13.5-9.5a256.12 256.12 0 0 0-32 0c-4.222 1.026-7.722 3.193-10.5 6.5l-21 63c-2.262-5.686-5.429-10.852-9.5-15.5-4.451-1.974-9.118-2.807-14-2.5 1.613-5.573 2.946-11.24 4-17-3.242-11.588-10.242-20.255-21-26l5.5-71 46.5 60.5c.949.617 1.782.451 2.5-.5l29-50 31.5 51 74-61c-4.249 19.874-8.915 39.874-14 60z"/><path d="M260.5 58.5c-.667 0-1-.333-1-1-.027-5.516 2.14-6.849 6.5-4 .769 4.736-1.064 6.402-5.5 5z" opacity=".975" class="C"/><path fill="#4a4a4a" d="M149.5 52.5c3.456 1.036 3.79 2.703 1 5-2.204-1.282-2.538-2.949-1-5z" opacity=".984"/><path fill="#676465" d="M366.5 50.5c-.733 4.945-2.066 9.612-4 14 .423-5.04 1.756-9.707 4-14z" opacity=".118"/><path d="M205.5 60.5c6.504-.362 8.171 2.138 5 7.5-5.715.401-7.381-2.099-5-7.5z" class="M"/><path d="M225.5 56.5c6.328 2.912 6.495 5.912.5 9-5.666-2.676-5.833-5.676-.5-9z" class="F"/><path d="M318.5 61.5c6.899.777 7.566 3.11 2 7-4.014-1.603-4.68-3.937-2-7z" class="N"/><path d="M301.5 63.5c5.18.904 6.18 3.404 3 7.5-4.833 1.166-6.667-.667-5.5-5.5.995-.566 1.828-1.233 2.5-2z" class="J"/><path d="M281.5 66.5c6.138-.72 8.138 1.78 6 7.5-2.847 1.852-5.347 1.352-7.5-1.5-.409-2.195.091-4.195 1.5-6z" opacity=".99" class="C"/><path fill="#3f3f3f" d="M377.5 71.5c4.512.78 4.845 2.114 1 4-2.142-.937-2.476-2.27-1-4z" opacity=".686"/><path fill="#303030" d="M134.5 72.5c3.505 1.917 3.838 4.25 1 7-4.622-2.128-4.955-4.461-1-7z"/><path fill="#3a3a3a" d="M151.5 69.5c5.516-.027 6.849 2.14 4 6.5-5.762.418-7.096-1.749-4-6.5z" opacity=".335"/><path d="M115.5 76.5c4.531.663 5.031 2.329 1.5 5-2.79-.924-3.29-2.591-1.5-5z" opacity=".557" class="F"/><path d="M284.5 83.5c5.668-.829 8.168 1.504 7.5 7-4.445 4.411-7.945 3.744-10.5-2 .76-1.86 1.76-3.527 3-5z" class="H"/><path fill="#464646" d="M398.5 86.5c2.032.548 3.032 1.881 3 4-3.454.233-4.454-1.1-3-4z"/><path d="M137.5 89.5c6.208 2.57 6.541 5.57 1 9-6.312-2.262-6.646-5.262-1-9z" opacity=".91" class="C"/><path d="M152.5 93.5c-.134-1.791.199-3.458 1-5 3.798-3.034 6.465-2.034 8 3-1.576 3.555-4.243 4.722-8 3.5-.556-.383-.889-.883-1-1.5z" class="B"/><path fill="#a6a6a6" d="M153.5 88.5c-.801 1.542-1.134 3.209-1 5-.639-.597-.972-1.43-1-2.5.184-1.376.851-2.209 2-2.5z" opacity=".092"/><path d="M361.5 90.5c7.074 1.761 7.574 4.428 1.5 8-5.104-2.09-5.604-4.756-1.5-8z" class="N"/><path fill="#39393a" d="M379.5 88.5c3.985.129 5.318 1.963 4 5.5-4.772.81-6.105-1.023-4-5.5z" opacity=".024"/><path fill="#5f5f5f" d="M103.5 98.5h-4c-.412 2.473.588 3.806 3 4-2.207 1.37-3.874.703-5-2 1.432-3.757 3.432-4.424 6-2z" opacity=".306"/><path fill="#171717" d="M103.5 98.5c1.353 1.628 1.019 2.962-1 4-2.412-.194-3.412-1.527-3-4h4z"/><path fill="#262727" d="M117.5 93.5c4.986-.195 6.652 1.972 5 6.5-5.759 1.139-7.426-1.028-5-6.5z"/><path fill="#272828" d="M82.5 100.5c4.557 1.159 4.891 2.825 1 5-2.204-1.282-2.538-2.949-1-5z"/><path fill="#2c2c2c" d="M401.5 103.5c5.031 1.705 5.198 3.705.5 6-3.103-1.612-3.27-3.612-.5-6z" opacity=".997"/><path fill="#030204" d="M390.5 118.5c.548 1.894 1.548 3.56 3 5 3.331-2.084 6.997-3.084 11-3-.149-1.052.017-2.052.5-3 .21 1.558.71 2.891 1.5 4 3.638.238 6.471 1.904 8.5 5l11.5 29c4.441-2.691 6.608-1.357 6.5 4-1.171 1.393-2.671 2.227-4.5 2.5 1.502 3.005 2.502 6.171 3 9.5.848 1.593 2.181 2.76 4 3.5-1.959 1.684-1.959 3.684 0 6 11.946.509 11.946 1.342 0 2.5.124.607.457.94 1 1l2 6c.968 2.605 2.302 4.939 4 7 5.194 15.08 10.694 30.08 16.5 45 4.623-2.178 6.623-.844 6 4a23.65 23.65 0 0 1-3.5 3c1.1 3.983 2.766 7.65 5 11 .632 4.202 1.632 8.202 3 12 .734 1.208 1.067 2.541 1 4v6c5.333.333 5.333.667 0 1-.188 2.706-1.188 5.039-3 7-2.39 2.528-5.39 4.028-9 4.5a145.24 145.24 0 0 0-16.5 1.5 12.49 12.49 0 0 0 0 7c7.802 8.809 9.802 18.809 6 30a109.39 109.39 0 0 1-6.5 10.5 60.87 60.87 0 0 1-10 3.5c-1.25.077-2.083.744-2.5 2-2.574-1.42-4.407-.753-5.5 2 .172-.992-.162-1.658-1-2a113.64 113.64 0 0 1-12.5-3c-2.085.624-3.918 1.624-5.5 3-.667 0-1 .333-1 1-6.671 3.427-13.338 6.427-20 9l-10 1c-2.711-.315-5.044.352-7 2-1.432-2.147-3.265-2.48-5.5-1-3.5 16.334-13.334 26.667-29.5 31-4.512 1.668-9.178 2.835-14 3.5a4.59 4.59 0 0 0-2.5 2.5c-.278-.916-.778-1.582-1.5-2-14.283 2.024-24.949-3.142-32-15.5a123.19 123.19 0 0 0-11.5.5c-3.864.17-7.531-.497-11-2-1.765 2.973-4.265 5.14-7.5 6.5-6.083 1.896-12.25 3.396-18.5 4.5-3.428-.19-6.761-.857-10-2-6.25 5.376-13.417 9.042-21.5 11-.768.763-1.268 1.763-1.5 3l-1-2c-2.63.359-4.797 1.359-6.5 3-3.405 3.771-7.072 3.938-11 .5-1.973-.495-3.973-.662-6-.5-5.199-1.607-10.533-2.774-16-3.5-6.783 7.722-15.117 12.889-25 15.5-13.778 4.847-27.778 5.68-42 2.5-7.646-3.462-12.312-9.295-14-17.5.284-1.915-.049-3.581-1-5v-1a141.46 141.46 0 0 0-2-9v-3c-1.679-4.325-3.013-8.658-4-13-.508-1.733-1.341-2.066-2.5-1-5.769-3.312-5.936-6.979-.5-11-.723-2.282-1.057-4.616-1-7-6.097-1.159-7.264-4.159-3.5-9l1.5-9c-6.665-.334-8.332-3.334-5-9 3.698-1.695 6.531-.695 8.5 3 9.074-8.618 19.907-13.618 32.5-15l3-1.5c-1.196-.654-1.196-1.154 0-1.5 2.434.93 4.434.93 6 0 13.307-.549 25.807 2.451 37.5 9 8.39-2.544 16.724-2.544 25 0 7.078-6.863 15.578-10.529 25.5-11 4.272 1.263 8.605 1.763 13 1.5 18.779-14.491 39.279-17.658 61.5-9.5 3.701-4.202 7.868-7.868 12.5-11-5.569-.353-10.402-2.353-14.5-6a617.57 617.57 0 0 1-15-46 938.92 938.92 0 0 1-16 46c-1.952 2.394-4.452 3.894-7.5 4.5-15.667.667-31.333.667-47 0l-5-3-22.5-36.5a61.98 61.98 0 0 1-2-13c-10.572 3.057-21.405 4.39-32.5 4 .167 12.005 0 24.005-.5 36-1.101 7.935-5.601 12.269-13.5 13h-14c-8.457 2.425-16.79 2.425-25 0-.607.124-.94.457-1 1-4.784-1.115-8.45-3.782-11-8-1.303-3.882-1.97-7.882-2-12a50.44 50.44 0 0 0-.5-10c-3.943 4.088-7.11 3.422-9.5-2 2.342-5.402 5.508-6.069 9.5-2 .5-13.329.667-26.663.5-40 1.02-8.162 1.02-16.162 0-24h-3c-1.052.149-2.052-.017-3-.5a18.45 18.45 0 0 1 6-.5c-.777-4.059-.777-7.725 0-11a31.12 31.12 0 0 0-1-11c-5.54-3.242-5.206-5.576 1-7-.166-12.005 0-24.005.5-36 1.187-4.209 3.687-7.376 7.5-9.5 18.29-1.266 36.623-1.933 55-2 .93-.991 2.096-1.491 3.5-1.5 3.976 2.051 8.143 2.385 12.5 1 2.422-4.318 5.589-4.984 9.5-2a8.43 8.43 0 0 1 .5 4c5.503.709 10.836 2.042 16 4 2.135 1.571 4.468 2.904 7 4 10.758 5.745 17.758 14.412 21 26-1.054 5.76-2.387 11.427-4 17 4.882-.307 9.549.526 14 2.5 4.071 4.648 7.238 9.814 9.5 15.5l21-63c2.778-3.307 6.278-5.474 10.5-6.5a256.12 256.12 0 0 1 32 0c6.137.799 10.637 3.965 13.5 9.5l17 55 24-56a36.08 36.08 0 0 1 3.5-4.5c4.457-2.324 8.791-4.491 13-6.5 2.3 1.702 4.967 2.368 8 2h10c2.43-5.775 5.43-6.108 9-1a25.88 25.88 0 0 0 10 1c-.828-5.175 1.172-7.175 6-6 2.783 2.842 2.45 5.342-1 7.5 2.16.996 3.827 2.496 5 4.5z" opacity=".993"/><path fill="#919191" d="M407.5 114.5c1.333.667 1.333.667 0 0z" opacity=".004"/><path fill="#2a2627" d="M407.5 115.5l-1 6c-.79-1.109-1.29-2.442-1.5-4-.483.948-.649 1.948-.5 3-4.003-.084-7.669.916-11 3-1.452-1.44-2.452-3.106-3-5 5.567-1.379 11.234-2.379 17-3z"/><path fill="#414141" d="M422.5 119.5h3c.413 5.051-.921 5.884-4 2.5.243-.902.577-1.735 1-2.5z"/><path fill="#5d00d8" d="M135.5 222.5h-27v50h-37v-145l73 .5c13.401 2.241 23.735 9.075 31 20.5-8.191 22.801-15.691 45.801-22.5 69-.5 1.833-1.667 3-3.5 3.5a53.07 53.07 0 0 1-14 1.5z"/><path fill="#5c00d7" d="M241.5 127.5c10.355-.332 20.688.001 31 1l28.5 91 38.5-92h39l-57 145c-13.246.323-26.413-.011-39.5-1a1462.73 1462.73 0 0 0-26-82L228.5 272a361.07 361.07 0 0 1-38 0L171 239.5c5.337-20.016 11.504-39.849 18.5-59.5.832-.688 1.498-.521 2 .5a1069.3 1069.3 0 0 0 20 39c10.602-30.473 20.602-61.14 30-92z"/><path d="M425.5 136.5c5.915 1.165 6.415 3.498 1.5 7-3.854-1.739-4.354-4.073-1.5-7z" class="C"/><path fill="#5c00d6" d="M383.5 253.5c-9.395.638-18.395-.029-27-2 2.568-8.716 5.901-17.049 10-25 10.687.332 21.354-.001 32-1-.124-.607-.457-.94-1-1a1285.7 1285.7 0 0 1-14-41.5c5.654-16.132 11.987-31.966 19-47.5l54 145h-18c-1.403-11.111-4.236-21.778-8.5-32-5.058-6.053-11.558-8.72-19.5-8-11.32-.171-20.32 4.162-27 13z"/><path d="M50.5 142.5c3.661-.15 4.661 1.35 3 4.5-.949.617-1.782.451-2.5-.5-.49-1.293-.657-2.627-.5-4z" opacity=".776" class="K"/><path fill="#3d3d3d" d="M446.5 152.5c2.584.548 3.584 2.215 3 5-3.784-.025-4.784-1.692-3-5z" opacity=".937"/><path fill="#030106" d="M108.5 155.5a180.87 180.87 0 0 1 19 .5c13.46 2.068 19.293 9.901 17.5 23.5a31.65 31.65 0 0 1-5.5 10.5c-9.908 4.061-20.241 5.561-31 4.5v-39z"/><path fill="#424242" d="M35.5 162.5c2.797.467 4.131 2.133 4 5-4.429.583-5.763-1.084-4-5z"/><path fill="#eaeaea" d="M124.5 171.5c1.723-1.307 3.557-1.307 5.5 0 .769 2.599.602 5.099-.5 7.5-.832.688-1.498.521-2-.5-.83-2.516-1.83-4.85-3-7z"/><path fill="#2a2727" d="M442.5 197.5c-1.698-2.061-3.032-4.395-4-7a69.52 69.52 0 0 0 6-6.5c-2.867-.801-5.534-.634-8 .5-.543-.06-.876-.393-1-1 11.946-1.158 11.946-1.991 0-2.5-1.959-2.316-1.959-4.316 0-6-1.819-.74-3.152-1.907-4-3.5 2.412-.256 4.079.744 5 3 4.295 1.161 8.629 1.328 13 .5-2.432-2.011-1.932-3.511 1.5-4.5 2.965 1.222 3.132 2.722.5 4.5a42.77 42.77 0 0 1 9 1.5c-2.813 3.647-5.813 7.147-9 10.5 7.139 1.412 7.639 3.912 1.5 7.5-1.755-1.17-2.755-2.837-3-5a28.65 28.65 0 0 1-7.5 8z" opacity=".97"/><path fill="#eeedee" d="M438.5 190.5l-2-6c2.466-1.134 5.133-1.301 8-.5a69.52 69.52 0 0 1-6 6.5z"/><path fill="#272324" d="M56.5 177.5c-.777 3.275-.777 6.941 0 11a18.45 18.45 0 0 0-6 .5c.948.483 1.948.649 3 .5l-17 3c6.368 4.198 12.868 8.198 19.5 12 .499-4.989.666-9.989.5-15 1.02 7.838 1.02 15.838 0 24a896.53 896.53 0 0 1-42.5-25c.081-2.138 1.081-2.471 3-1a216.99 216.99 0 0 1 20.5-3c-.353-2.135.48-3.468 2.5-4a26.65 26.65 0 0 1 5.5 3 98.28 98.28 0 0 1 9-1.5c-1.556-2.501-.889-4.001 2-4.5z" class="D"/><path fill="#efefef" d="M53.5 189.5h3c.166 5.011-.001 10.011-.5 15-6.632-3.802-13.132-7.802-19.5-12l17-3z" class="D"/><path fill="#eee" d="M369.5 189.5c3.028 6.734 5.694 13.734 8 21l-15.5 2-1.5-1a224.73 224.73 0 0 0 9-22z"/><path fill="#2e2e2e" d="M23.5 202.5c4.549.432 5.049 2.099 1.5 5-2.509-1.153-3.009-2.82-1.5-5z" opacity=".996"/><path fill="#343434" d="M472.5 204.5h4v3h-4v-3z" opacity=".416"/><path fill="#323333" d="M454.5 205.5c3.529-.611 5.362.723 5.5 4-2.973 2.939-5.473 2.605-7.5-1l2-3z" opacity=".8"/><path d="M25.5 219.5c4.768.131 5.768 1.965 3 5.5-3.963.118-4.963-1.716-3-5.5z" class="E"/><path d="M43.5 215.5c3.959-.922 6.292.578 7 4.5-2.165 3.966-4.998 4.466-8.5 1.5-.409-2.195.091-4.195 1.5-6z" class="O"/><path fill="#0f0022" d="M135.5 222.5c-8.484.993-17.151 1.326-26 1 .33 16.509-.004 32.842-1 49v-50h27z"/><path fill="#4c4c4c" d="M475.5 222.5c3.939-.322 4.772 1.011 2.5 4-1.706-.808-2.539-2.141-2.5-4z" opacity=".514"/><path fill="#2f006e" d="M397.5 224.5c.543.06.876.393 1 1-10.646.999-21.313 1.332-32 1l31-2z"/><path fill="#1f1f1f" d="M457.5 223.5c5.247.14 6.247 2.306 3 6.5-5.118-.176-6.118-2.342-3-6.5z"/><path d="M46.5 233.5c6.725-.296 8.392 2.371 5 8-7.098.957-8.765-1.71-5-8z" class="E"/><path fill="#fafafa" d="M110.5 308.5c2.226-3.445 4.226-7.111 6-11a134.07 134.07 0 0 0-20-9l13-2c7.899-.731 12.399-5.065 13.5-13 .5-11.995.667-23.995.5-36 11.095.39 21.928-.943 32.5-4a61.98 61.98 0 0 0 2 13l22.5 36.5 5 3c15.667.667 31.333.667 47 0 3.048-.606 5.548-2.106 7.5-4.5a938.92 938.92 0 0 0 16-46 617.57 617.57 0 0 0 15 46c4.098 3.647 8.931 5.647 14.5 6-4.632 3.132-8.799 6.798-12.5 11-22.221-8.158-42.721-4.991-61.5 9.5-4.395.263-8.728-.237-13-1.5-9.922.471-18.422 4.137-25.5 11-8.276-2.544-16.61-2.544-25 0-11.693-6.549-24.193-9.549-37.5-9z"/><path d="M28.5 237.5c6.868.722 7.535 3.055 2 7-4.352-1.381-5.018-3.714-2-7z" class="C"/><path fill="#343434" d="M479.5 239.5c3.274.879 3.607 2.212 1 4-2.142-.937-2.476-2.27-1-4z" class="P"/><path fill="#3c3c3c" d="M10.5 241.5c3.194-.324 4.194.842 3 3.5a8.43 8.43 0 0 1-4 .5c-.067-1.459.266-2.792 1-4z" class="Q"/><path fill="#4600a4" d="M356.5 251.5c8.605 1.971 17.605 2.638 27 2-9.152.994-18.485 1.327-28 1-.237-1.291.096-2.291 1-3z"/><path d="M405.5 254.5c3.35-.165 6.683.002 10 .5 2.052.93 3.552 2.43 4.5 4.5 2.878 13.221 5.044 26.554 6.5 40a7.93 7.93 0 0 1-1 3.5c-4.222 3.111-8.889 4.111-14 3l-1.5-1.5c-5.801-14.1-10.301-28.6-13.5-43.5a34.91 34.91 0 0 1 9-6.5z" class="I"/><path fill="#363636" d="M32.5 254.5c5.155.638 6.155 2.972 3 7-3.292 1.677-5.292.677-6-3 .287-1.943 1.287-3.277 3-4z" opacity=".773"/><path fill="#ececec" d="M340.5 260.5c2.756 1.947 5.422 4.114 8 6.5 2.28.233 4.28 1.066 6 2.5-8.407 1.851-15.574 5.851-21.5 12l7.5-21z"/><path fill="#424242" d="M13.5 259.5h5c.042 2.349-1.125 3.682-3.5 4-2.5-.658-3-1.991-1.5-4z" opacity=".09"/><path fill="#282425" d="M466.5 260.5a27.24 27.24 0 0 0 5 3.5c13.298 5.318 26.298 11.152 39 17.5-14.259 3.385-28.592 6.385-43 9 1.812-1.961 2.812-4.294 3-7 5.333-.333 5.333-.667 0-1v-6c.951 1.419 1.284 3.085 1 5a39.14 39.14 0 0 0 14-3c-5.146-2.074-10.146-4.407-15-7-.607.124-.94.457-1 1-1.368-3.798-2.368-7.798-3-12z" opacity=".998"/><path fill="#ededed" d="M470.5 276.5c.067-1.459-.266-2.792-1-4 .06-.543.393-.876 1-1 4.854 2.593 9.854 4.926 15 7a39.14 39.14 0 0 1-14 3c.284-1.915-.049-3.581-1-5z" class="D"/><path d="M34.5 272.5c3.333-.667 5.333.667 6 4-2.887 5.211-5.554 5.211-8 0 .252-1.573.918-2.906 2-4z" class="B"/><path fill="#2d2a2b" d="M56.5 267.5c.03 4.118.697 8.118 2 12a31.91 31.91 0 0 0-6-1.5c-1.517-1.685-3.184-3.185-5-4.5 2.2-3.2 5.2-5.2 9-6z"/><path fill="#3c3c3c" d="M17.5 276.5c3.427 1.513 3.761 3.513 1 6-3.358-1.692-3.691-3.692-1-6z"/><path d="M366.5 280.5c11.103-1.691 20.603 1.309 28.5 9a225.9 225.9 0 0 1 9.5 36.5c-.915 5.161-3.581 9.161-8 12-12.89 7.644-26.556 9.644-41 6-7.82-5.441-10.986-12.941-9.5-22.5 1.738-3.741 4.238-6.908 7.5-9.5l24-10.5a14.97 14.97 0 0 0-3-3.5c-9.723-.76-18.557 1.74-26.5 7.5-6.996-5.638-7.163-11.472-.5-17.5 6.148-3.272 12.481-5.772 19-7.5z" class="I"/><path fill="#7f7f7f" d="M95.5 286.5h14l-13 2c-.838-.342-1.172-1.008-1-2z"/><path fill="#232021" d="M95.5 286.5c-.172.992.162 1.658 1 2a134.07 134.07 0 0 1 20 9c-1.774 3.889-3.774 7.555-6 11-1.566.93-3.566.93-6 0-1.196.346-1.196.846 0 1.5l-3 1.5c.219-1.175-.114-2.175-1-3-7.674 3.176-10.841.51-9.5-8 1.887-2.386 4.387-3.553 7.5-3.5-5.686-2.116-11.186-4.616-16.5-7.5-2.488 5.298-6.155 6.298-11 3a8.8 8.8 0 0 1-1.5-5c.06-.543.393-.876 1-1 8.21 2.425 16.543 2.425 25 0zm5 12c5.381.431 6.548 2.431 3.5 6-.564-2.387-1.73-4.387-3.5-6z"/><path fill="#1b1b1b" d="M55.5 286.5c4.825-.012 6.991 2.321 6.5 7-3 4-6 4-9 0-.667-1.333-.667-2.667 0-4a10.51 10.51 0 0 0 2.5-3z"/><path d="M36.5 290.5c6.162-.05 7.829 2.45 5 7.5-6.814.704-8.481-1.796-5-7.5z" class="G"/><path d="M310.5 293.5c6.045-.072 12.045.428 18 1.5a69.2 69.2 0 0 1 6.5 4.5c5.022 18.132 9.189 36.465 12.5 55-1.182 12.031-7.515 20.198-19 24.5a121.75 121.75 0 0 1-18.5 3.5c-11.552.782-16.552-4.552-15-16 .739-1.074 1.739-1.741 3-2 10.182 2.581 19.515.915 28-5 2.13-3.165 1.963-6.165-.5-9-27.761 11.245-42.761 1.912-45-28 .685-12.195 6.685-20.695 18-25.5 4.043-1.491 8.043-2.658 12-3.5z" class="I"/><path fill="#323232" d="M19.5 294.5c4.358 1.047 4.858 3.047 1.5 6-2.479-1.588-2.979-3.588-1.5-6z" opacity=".973"/><path d="M469.5 296.5c3.661-.15 4.661 1.35 3 4.5-3.793.487-4.793-1.013-3-4.5z" class="R"/><path d="M451.5 297.5c4.766.658 6.1 3.158 4 7.5-3.628 1.316-5.961.149-7-3.5l3-4z" class="E"/><path d="M76.5 300.5c5.83-.339 8.33 2.327 7.5 8-3.617 5.315-7.283 5.315-11 0-.721-3.554.446-6.22 3.5-8z" class="B D"/><path d="M63.5 305.5c1.186 2.374 1.186 4.708 0 7-2.299 2.502-4.799 2.502-7.5 0-1.327-6.749 1.173-9.082 7.5-7z" opacity=".984" class="J"/><path d="M241.5 308.5a180.87 180.87 0 0 1 19 .5c5.068 2.078 9.234 5.245 12.5 9.5a493.4 493.4 0 0 1 10.5 43c-1.335 3.52-4.002 5.353-8 5.5-7.668 2.622-12.501.122-14.5-7.5a1044.62 1044.62 0 0 1-7-31c-4.633-3.825-9.467-3.991-14.5-.5-1.074.739-1.741 1.739-2 3a407.67 407.67 0 0 1 8.5 41.5 95.25 95.25 0 0 1-13 4c-2.814.092-5.147-.908-7-3-3.275-11.253-6.275-22.586-9-34-3.775-9.31-1.608-16.81 6.5-22.5 5.708-3.69 11.708-6.523 18-8.5z" class="I"/><path d="M39.5 308.5c7.064-.148 8.397 2.352 4 7.5-5.666-.165-6.999-2.665-4-7.5z" class="C"/><path fill="#7a7a7a" d="M63.5 305.5c1.493.812 2.16 2.145 2 4-.14 1.53-.806 2.53-2 3 1.186-2.292 1.186-4.626 0-7z" opacity=".031"/><path fill="#090409" d="M309.5 310.5c2.619-.268 5.119.065 7.5 1 2.655 7.788 4.155 15.621 4.5 23.5-6.414 5.12-12.247 4.62-17.5-1.5a54.37 54.37 0 0 1-2.5-11.5c-.24-2.891.593-5.391 2.5-7.5 2.015-1.197 3.849-2.53 5.5-4z"/><path fill="#e77ef6" d="M419.5 310.5c13.199.043 17.699 6.376 13.5 19-5.904 5.614-12.237 6.281-19 2-5.79-9.116-3.957-16.116 5.5-21z"/><path d="M22.5 311.5c3.074.921 4.074 2.754 3 5.5-1.965.624-3.631.124-5-1.5 1.13-1.122 1.797-2.456 2-4z" opacity=".975" class="K"/><path fill="#383838" d="M472.5 314.5c2.412.194 3.412 1.527 3 4-3.454.233-4.454-1.1-3-4z" opacity=".827"/><path fill="#090409" d="M379.5 316.5c1.431.381 2.264 1.381 2.5 3 1.954 5.478.121 8.645-5.5 9.5-3.493 1.004-6.659.504-9.5-1.5-.667-1.667-.667-3.333 0-5 4.116-2.227 8.283-4.227 12.5-6z"/><path fill="#151515" d="M455.5 316.5c4.245 3.198 3.578 4.864-2 5-1.098-1.101-1.265-2.434-.5-4 .671-.752 1.504-1.086 2.5-1z"/><path fill="#5f5f5f" d="M453.5 321.5c5.578-.136 6.245-1.802 2-5a.91.91 0 0 1 .5-1c4.766 2.944 4.6 5.611-.5 8-1.022-.355-1.689-1.022-2-2z" opacity=".129"/><path d="M192.5 321.5c4.014-.166 8.014.001 12 .5l2.5 2.5c3.884 14.705 7.384 29.539 10.5 44.5-.811 4.619-3.144 8.285-7 11-13.415 8.625-27.748 10.625-43 6-7.097-5.348-11.264-12.514-12.5-21.5-2.806-10.556-4.973-21.222-6.5-32a52.68 52.68 0 0 1 12.5-3c5.233-.383 8.566 1.95 10 7 2.357 10.762 5.024 21.429 8 32 4.861 3.865 9.861 3.865 15 0-1.867-14.46-4.7-28.793-8.5-43 2.265-1.627 4.599-2.961 7-4z" class="I"/><path fill="#e77ef8" d="M112.5 323.5c11.235-2.087 20.735.913 28.5 9 2.424 5.07 3.091 10.403 2 16-1.25 3.416-3.417 6.083-6.5 8 17.05 5.101 21.883 15.768 14.5 32-7.287 7.562-16.121 12.396-26.5 14.5-8.967 2.399-17.967 2.733-27 1l-3.5-3.5a1351.49 1351.49 0 0 1-14.5-61c-.094-2.412.906-4.245 3-5.5 9.557-5.047 19.557-8.547 30-10.5z"/><path d="M43.5 326.5c5.168.839 6.168 3.339 3 7.5-6.549-.138-7.549-2.638-3-7.5z" class="G"/><path fill="#383838" d="M25.5 330.5c2.987.448 3.987 1.948 3 4.5-3.793.487-4.793-1.013-3-4.5z"/><path fill="#343535" d="M457.5 334.5c4.697 1.374 5.031 3.374 1 6-3.475-1.584-3.808-3.584-1-6z" opacity=".871"/><path fill="#070308" d="M107.5 341.5c4.014-.166 8.014.001 12 .5 4 4 4 8 0 12a106.09 106.09 0 0 1-14 3.5 54.26 54.26 0 0 0-3-13c1.447-1.435 3.114-2.435 5-3z"/><path fill="#f6f6f6" d="M422.5 349.5a41.01 41.01 0 0 1-18 0c1.582-1.376 3.415-2.376 5.5-3a113.64 113.64 0 0 0 12.5 3z"/><path fill="#242424" d="M46.5 344.5c4.033.191 5.533 2.191 4.5 6-3.251 2.96-5.418 2.293-6.5-2 .252-1.573.918-2.906 2-4z" opacity=".943"/><path fill="#242122" d="M431.5 347.5c-.111.617-.444 1.117-1 1.5a139.58 139.58 0 0 1 6 9.5c-2.458-.14-5.125.194-8 1 1.17 4.993-.83 6.827-6 5.5-2.102-1.733-2.435-3.733-1-6l-3.5-.5a487.93 487.93 0 0 1-34.5 1c6.662-2.573 13.329-5.573 20-9 6.479.991 13.146 1.324 20 1 1.093-2.753 2.926-3.42 5.5-2 .417-1.256 1.25-1.923 2.5-2z" opacity=".928"/><path fill="#373737" d="M28.5 348.5c3.456 1.036 3.79 2.703 1 5-2.204-1.282-2.538-2.949-1-5z"/><path fill="#7f7c7e" d="M404.5 349.5a41.01 41.01 0 0 0 18 0c.838.342 1.172 1.008 1 2-6.854.324-13.521-.009-20-1 0-.667.333-1 1-1z"/><path fill="#393a3a" d="M460.5 353.5c3.361.703 3.694 2.037 1 4-2.142-.937-2.476-2.27-1-4z" class="P"/><path fill="#282828" d="M440.5 355.5c4.191-.631 6.025 1.035 5.5 5-2.869 2.509-5.036 1.842-6.5-2 .627-.917.961-1.917 1-3z" opacity=".993"/><path fill="#f9f9f9" d="M366.5 362.5l17 59.5-1 1.5-51-28.5c-1.098-.77-1.098-1.603 0-2.5 16.166-4.333 26-14.666 29.5-31 2.235-1.48 4.068-1.147 5.5 1z" class="D"/><path d="M404.5 359.5c4.825-.012 6.991 2.321 6.5 7-2.581 3.557-5.581 3.89-9 1-.977-3.317-.144-5.984 2.5-8z" class="C D"/><path d="M48.5 363.5c6.574.468 7.407 2.802 2.5 7-3.436-1.414-4.27-3.747-2.5-7z" class="L"/><path d="M387.5 361.5c8.7 3.38 9.033 7.38 1 12-7.545-3.491-7.879-7.491-1-12z" class="J"/><path fill="#060306" d="M118.5 370.5c9.253-2.56 13.42.773 12.5 10l-3.5 3.5c-4.902 1.642-9.902 2.809-15 3.5a241.69 241.69 0 0 1-3-15c3.189-.358 6.189-1.025 9-2z"/><path fill="#373838" d="M444.5 374.5h4c-.386 4.238-2.052 4.904-5 2l1-2z" opacity=".835"/><path fill="#292526" d="M71.5 369.5c.987 4.342 2.321 8.675 4 13-2.013.975-3.346 2.642-4 5 1.845.895 3.178.228 4-2a141.46 141.46 0 0 1 2 9c-2.605 1.67-2.605 2.004 0 1 .951 1.419 1.284 3.085 1 5-4.253 3.313-6.753 2.313-7.5-3l-17 10-.5-1.5c6.368-11.903 12.368-24.069 18-36.5z"/><path d="M426.5 375.5c4.207.194 5.54 2.194 4 6-1.853 1.26-3.686 1.26-5.5 0-.743-2.374-.243-4.374 1.5-6z" class="B"/><path fill="#fafafa" d="M313.5 396.5l-5 54-53-52-38.5 66a920.99 920.99 0 0 1-15.5-65c8.083-1.958 15.25-5.624 21.5-11 3.239 1.143 6.572 1.81 10 2 6.25-1.104 12.417-2.604 18.5-4.5 3.235-1.36 5.735-3.527 7.5-6.5 3.469 1.503 7.136 2.17 11 2a123.19 123.19 0 0 1 11.5-.5c7.051 12.358 17.717 17.524 32 15.5z"/><path fill="#1f1f1f" d="M408.5 377.5c4.512.369 6.012 2.702 4.5 7-3.881 2.987-6.715 2.153-8.5-2.5.844-2.007 2.177-3.507 4-4.5z"/><path d="M388.5 380.5c7.102-.427 9.102 2.407 6 8.5-3.619 2.241-6.452 1.408-8.5-2.5-.244-2.43.589-4.43 2.5-6z" class="B"/><path fill="#d8d7d8" d="M75.5 382.5v3c-.822 2.228-2.155 2.895-4 2 .654-2.358 1.987-4.025 4-5z"/><path d="M52.5 381.5c4.6.982 5.1 2.982 1.5 6-3.845-1.323-4.345-3.323-1.5-6z" opacity=".792" class="R"/><path fill="#252222" d="M373.5 360.5l23.5 80-51.5-29c-.229 3.278-2.229 5.611-6 7-7.041-2.963-7.708-6.796-2-11.5a264.43 264.43 0 0 0-13.5-7.5c-.667 1.333-1.667 2.333-3 3a26.67 26.67 0 0 1-1.5 6.5c6.505.177 8.672 3.344 6.5 9.5-1.816 1.941-3.816 2.608-6 2-1.405 3.572-1.738 7.239-1 11 3.922-5.225 7.422-4.725 10.5 1.5-.562 3.395-2.562 5.229-6 5.5-2.266-.431-3.766-1.764-4.5-4-2.107 10.829-2.94 21.662-2.5 32.5l-1.5.5c-8.365-7.158-16.198-14.992-23.5-23.5-1.535-.496-3.035-.33-4.5.5a16.2 16.2 0 0 1-3.5-1.5c-1.676-3.126-2.51-6.293-2.5-9.5a132.25 132.25 0 0 1-8.5-8c-5.158 6.894-9.491 6.394-13-1.5.583-2.915 2.25-4.915 5-6-1.811-2.978-4.144-5.478-7-7.5l-6 11c.363.683.696 1.35 1 2v7c-.558 1.29-1.558 2.123-3 2.5-1.945-.128-3.778.038-5.5.5l-6 10c1.093 4.807-.74 8.14-5.5 10-6.17 10.141-11.836 20.474-17 31h-3a1251.41 1251.41 0 0 0-15.5-68c-.89 5.527-4.057 7.693-9.5 6.5-5.396-5.069-4.563-8.903 2.5-11.5 2.527.524 4.527 1.858 6 4-.167-3.688-.834-7.355-2-11-.383-.556-.883-.889-1.5-1 1.703-1.641 3.87-2.641 6.5-3l1 2c.232-1.237.732-2.237 1.5-3a920.99 920.99 0 0 0 15.5 65l38.5-66 53 52 5-54c.722.418 1.222 1.084 1.5 2a4.59 4.59 0 0 1 2.5-2.5c4.822-.665 9.488-1.832 14-3.5-1.098.897-1.098 1.73 0 2.5l51 28.5 1-1.5-17-59.5c1.956-1.648 4.289-2.315 7-2z"/><path d="M429.5 395.5c2.666-.434 3.833.566 3.5 3-3.597 1.566-4.763.566-3.5-3z" class="N"/><path d="M411.5 396.5c4.841 2.044 5.175 4.711 1 8-4.894-2.218-5.228-4.885-1-8z" class="O"/><path fill="#292626" d="M175.5 403.5c-2.178 5.223-5.678 6.556-10.5 4-10.202 5.194-20.702 9.361-31.5 12.5.88-1.356 1.214-2.856 1-4.5 9.883-2.611 18.217-7.778 25-15.5 5.467.726 10.801 1.893 16 3.5z"/><path d="M391.5 399.5c6.504-.362 8.171 2.138 5 7.5-6.294.578-7.961-1.922-5-7.5z" class="B"/><path fill="#404040" d="M76.5 414.5c5.987 1.276 6.32 3.276 1 6-2.239-1.633-2.572-3.633-1-6z"/><path fill="#1d1d1d" d="M170.5 414.5c5.856.354 8.023 3.354 6.5 9-3.249 3.867-6.582 3.867-10 0-1.335-4.108-.168-7.108 3.5-9z"/><path fill="#3d3e3e" d="M413.5 416.5h4c-.386 4.238-2.052 4.904-5 2l1-2z" opacity=".925"/><path d="M150.5 418.5c4.593-1.082 7.593.585 9 5-2.287 5.297-5.787 6.297-10.5 3-.891-2.998-.391-5.664 1.5-8z" class="E"/><path fill="#242425" d="M396.5 417.5c5.053 1.992 5.22 4.325.5 7-4.443-2.131-4.61-4.464-.5-7z" opacity=".99"/><g fill="#1b1b1b"><path d="M134.5 421.5c7.366 2.712 7.699 6.045 1 10-6.228-2.881-6.562-6.214-1-10z"/><path d="M346.5 428.5a20.69 20.69 0 0 1-1 5c-4.331 2.156-6.997.822-8-4 1.483-4.248 4.15-5.415 8-3.5.752.671 1.086 1.504 1 2.5z" opacity=".938"/></g><path fill="#1c1d1d" d="M358.5 422.5c3.49-.349 5.823 1.151 7 4.5-2.481 5.248-5.648 5.748-9.5 1.5-.667-1-.667-2 0-3 1.045-.873 1.878-1.873 2.5-3z"/><path fill="#242424" d="M114.5 425.5c3.099-.328 5.432.838 7 3.5-2.466 5.368-5.466 5.701-9 1 .544-1.585 1.211-3.085 2-4.5z"/><path fill="#747474" d="M252.5 423.5c2.667 2.333 2.667 4.667 0 7v-7z" class="P"/><path fill="#9c9c9c" d="M346.5 428.5c1.43 1.955 1.097 3.621-1 5a20.69 20.69 0 0 0 1-5z" opacity=".216"/><path d="M97.5 429.5c3.85.201 4.85 2.034 3 5.5-4.836.025-5.836-1.808-3-5.5z" opacity=".884" class="G"/><path d="M190.5 430.5c7.303.102 9.303 3.269 6 9.5-6.26 2.412-9.093.245-8.5-6.5 1.045-.873 1.878-1.873 2.5-3z" opacity=".995" class="H"/><path d="M173.5 433.5c7.348.951 8.681 4.118 4 9.5-4.853 1.13-7.353-.704-7.5-5.5.69-1.85 1.856-3.184 3.5-4z" opacity=".965" class="G"/><path d="M267.5 436.5c7.468 1.174 8.801 4.674 4 10.5-5.833.833-8.333-1.667-7.5-7.5 1.145-1.136 2.312-2.136 3.5-3z" class="E"/><path d="M153.5 437.5c7.64-.205 9.307 2.628 5 8.5-6.502 0-8.168-2.834-5-8.5z" opacity=".956" class="G"/><path fill="#4b4b4b" d="M399.5 436.5c2.398 1.382 2.565 3.049.5 5-1.788-1.523-1.955-3.19-.5-5z" opacity=".31"/><path d="M136.5 440.5c5.988.164 7.321 2.664 4 7.5-3.098 1.067-5.098.067-6-3 .019-1.833.685-3.333 2-4.5z" opacity=".928" class="F"/><path fill="#1d1d1d" d="M248.5 439.5c4.247-.382 6.914 1.451 8 5.5-3.966 7.202-7.632 7.202-11 0 .363-2.192 1.363-4.026 3-5.5z" opacity=".997"/><path fill="#313131" d="M380.5 439.5c3.264.226 4.264 1.726 3 4.5-4.978.864-5.978-.636-3-4.5z" class="Q"/><path fill="#5d5d5d" d="M365.5 443.5c-2.165-.384-3.832.283-5 2 1.168 1.717 2.835 2.384 5 2-1.277 2.414-2.943 2.581-5 .5-1.775-3.371-.775-5.538 3-6.5 1.022.355 1.689 1.022 2 2z" opacity=".757"/><path d="M365.5 443.5c2.667 1.333 2.667 2.667 0 4-2.165.384-3.832-.283-5-2 1.168-1.717 2.835-2.384 5-2z" class="H"/><path d="M118.5 444.5c4.702 1.147 5.202 3.481 1.5 7-3.629-1.983-4.129-4.316-1.5-7z" class="G"/><path d="M343.5 444.5c3.071-.575 5.071.591 6 3.5-1.414 4.467-3.914 5.3-7.5 2.5-.748-2.34-.248-4.34 1.5-6z" class="C D"/><path d="M326.5 446.5c6.432 3.15 6.432 6.15 0 9-2.565-.399-3.899-1.899-4-4.5.667-2.151 2-3.651 4-4.5z" opacity=".995" class="B"/><path fill="#3b3b3b" d="M100.5 448.5c2.3.022 3.467 1.022 3.5 3-3.597 1.566-4.763.566-3.5-3z" opacity=".518"/><path d="M194.5 448.5c4.788.623 6.621 3.29 5.5 8-4.374 3.043-7.207 2.043-8.5-3 .271-2.193 1.271-3.859 3-5z" class="J"/><path d="M175.5 452.5c6.451-.408 8.118 2.092 5 7.5-6.755.756-8.422-1.744-5-7.5z" class="E"/><path d="M288.5 452.5c5.881.458 7.548 3.124 5 8-8.308 1.366-9.975-1.3-5-8z" class="B"/><path d="M158.5 455.5c6.136 1.884 6.469 4.55 1 8-4.744-2.145-5.077-4.812-1-8z" class="E"/><path d="M270.5 455.5c6.143.526 7.476 3.36 4 8.5-5.5 1.167-7.667-1-6.5-6.5.995-.566 1.828-1.233 2.5-2z" class="H"/><path d="M139.5 459.5c4.541.315 5.541 2.149 3 5.5-1.284.684-2.451.517-3.5-.5-.384-1.697-.218-3.363.5-5z" opacity=".97" class="M"/><path d="M251.5 458.5c5.644-.203 7.644 2.297 6 7.5-5.256 2.712-8.09 1.212-8.5-4.5 1.045-.873 1.878-1.873 2.5-3z" class="F"/><path d="M233.5 461.5c6.143.526 7.476 3.36 4 8.5-4.996.664-6.83-1.502-5.5-6.5.717-.544 1.217-1.211 1.5-2z" opacity=".955" class="B"/><path fill="#373738" d="M364.5 461.5h4c-1.662 5.036-2.995 5.036-4 0z" opacity=".608"/><path fill="#4c4c4c" d="M121.5 463.5h3c-.002 4.041-1.335 4.708-4 2l1-2z" opacity=".733"/><path fill="#4d4d4d" d="M346.5 463.5c4.42.59 5.086 2.59 2 6-2.89-1.337-3.557-3.337-2-6z" opacity=".149"/><path d="M329.5 465.5c3.729 2.037 3.896 4.37.5 7-4.453-2.155-4.62-4.488-.5-7z" class="M"/><path d="M310.5 468.5c2.344.006 3.678 1.173 4 3.5-2 4.667-4 4.667-6 0 .362-1.434 1.028-2.601 2-3.5z" class="O"/><path d="M179.5 471.5c6.206 1.424 6.54 3.758 1 7-3.425-2.005-3.758-4.338-1-7z" opacity=".99" class="L"/><path d="M196.5 468.5c5.395-.945 7.061 1.055 5 6-5.307 1.295-6.974-.705-5-6z" opacity=".996" class="F"/><path d="M290.5 471.5c5.395-.945 7.061 1.055 5 6-5.179 1.147-6.846-.853-5-6z" class="K"/><path d="M160.5 475.5c6.585 1.485 6.585 2.818 0 4v-4z" class="R"/><path fill="#2c2c2c" d="M273.5 474.5c4.978.452 5.978 2.619 3 6.5-5.139-.114-6.139-2.281-3-6.5z"/><path d="M254.5 477.5c4.741-.339 6.074 1.661 4 6-2.651 1.342-4.318.508-5-2.5a10.98 10.98 0 0 1 1-3.5z" class="H"/><path fill="#303131" d="M218.5 483.5c3.571-.092 4.738 1.574 3.5 5-2.085 1.147-3.585.48-4.5-2 .627-.917.961-1.917 1-3z"/><path d="M236.5 480.5c2.744-.3 4.411.867 5 3.5-2 4.667-4 4.667-6 0a10.98 10.98 0 0 1 1-3.5z" class="F"/><path fill="#3f3f3f" d="M200.5 487.5c4.184.94 4.684 2.607 1.5 5-2.611-1-3.111-2.667-1.5-5z" opacity=".016"/><path d="M295.5 490.5c3.974 2.081 3.641 3.414-1 4-.067-1.459.266-2.792 1-4z" opacity=".388" class="K"/><path fill="#3a3a3a" d="M277.5 493.5c2.64 1.294 2.64 2.627 0 4-2.625-1.365-2.625-2.698 0-4z" opacity=".89"/><path fill="#505050" d="M258.5 496.5c3.783 2.155 3.45 3.821-1 5-.134-1.792.199-3.458 1-5z" class="Q"/></svg>